<?xml version="1.0" encoding="UTF-8" standalone="no"?>
<!-- Created with Inkscape (http://www.inkscape.org/) -->

<svg
   xmlns:dc="http://purl.org/dc/elements/1.1/"
   xmlns:cc="http://creativecommons.org/ns#"
   xmlns:rdf="http://www.w3.org/1999/02/22-rdf-syntax-ns#"
   xmlns:svg="http://www.w3.org/2000/svg"
   xmlns="http://www.w3.org/2000/svg"
   xmlns:sodipodi="http://sodipodi.sourceforge.net/DTD/sodipodi-0.dtd"
   xmlns:inkscape="http://www.inkscape.org/namespaces/inkscape"
   width="210mm"
   height="297mm"
   viewBox="0 0 210 297"
   version="1.1"
   id="svg8"
   inkscape:version="0.92.4 (5da689c313, 2019-01-14)"
   sodipodi:docname="pie.svg"
   inkscape:export-filename="C:\Users\sapph\Documents\pie.png"
   inkscape:export-xdpi="27.732439"
   inkscape:export-ydpi="27.732439">
  <defs
     id="defs2">
    <inkscape:path-effect
       effect="bspline"
       id="path-effect4529"
       is_visible="true"
       weight="33.333333"
       steps="2"
       helper_size="0"
       apply_no_weight="true"
       apply_with_weight="true"
       only_selected="false" />
  </defs>
  <sodipodi:namedview
     id="base"
     pagecolor="#ffffff"
     bordercolor="#666666"
     borderopacity="1.0"
     inkscape:pageopacity="0.0"
     inkscape:pageshadow="2"
     inkscape:zoom="0.70737049"
     inkscape:cx="414.43016"
     inkscape:cy="434.91183"
     inkscape:document-units="mm"
     inkscape:current-layer="layer1"
     showgrid="false"
     inkscape:window-width="1920"
     inkscape:window-height="1017"
     inkscape:window-x="-8"
     inkscape:window-y="-8"
     inkscape:window-maximized="1" />
  <metadata
     id="metadata5">
    <rdf:RDF>
      <cc:Work
         rdf:about="">
        <dc:format>image/svg+xml</dc:format>
        <dc:type
           rdf:resource="http://purl.org/dc/dcmitype/StillImage" />
        <dc:title></dc:title>
      </cc:Work>
    </rdf:RDF>
  </metadata>
  <g
     inkscape:label="Camada 1"
     inkscape:groupmode="layer"
     id="layer1">
    <path
       style="opacity:1;fill:#e6b96e;fill-opacity:1;stroke:none;stroke-width:14.77367687;stroke-linecap:round;stroke-linejoin:round;stroke-miterlimit:4;stroke-dasharray:none;stroke-opacity:1"
       id="path4632-8"
       sodipodi:type="arc"
       sodipodi:cx="183.10316"
       sodipodi:cy="-79.034325"
       sodipodi:rx="12.587727"
       sodipodi:ry="12.587727"
       sodipodi:start="3.1374388"
       sodipodi:end="3.1282234"
       sodipodi:open="true"
       d="m 170.51555,-78.982037 a 12.587727,12.587727 0 0 1 12.50633,-12.639752 12.587727,12.587727 0 0 1 12.66853,12.477178 12.587727,12.587727 0 0 1 -12.44796,12.697242 12.587727,12.587727 0 0 1 -12.72589,-12.418672"
       transform="scale(1,-1)" />
    <path
       style="opacity:1;fill:#e6b96e;fill-opacity:1;stroke:none;stroke-width:14.77367687;stroke-linecap:round;stroke-linejoin:round;stroke-miterlimit:4;stroke-dasharray:none;stroke-opacity:1"
       id="path4632-30"
       sodipodi:type="arc"
       sodipodi:cx="163.76369"
       sodipodi:cy="-75.653381"
       sodipodi:rx="12.587727"
       sodipodi:ry="12.587727"
       sodipodi:start="3.1374388"
       sodipodi:end="3.1282234"
       sodipodi:open="true"
       d="m 151.17607,-75.601094 a 12.587727,12.587727 0 0 1 12.50633,-12.639751 12.587727,12.587727 0 0 1 12.66853,12.477177 12.587727,12.587727 0 0 1 -12.44796,12.697243 12.587727,12.587727 0 0 1 -12.72588,-12.418673"
       transform="scale(1,-1)" />
    <path
       style="opacity:1;fill:#e6b96e;fill-opacity:1;stroke:none;stroke-width:14.77367687;stroke-linecap:round;stroke-linejoin:round;stroke-miterlimit:4;stroke-dasharray:none;stroke-opacity:1"
       id="path4632-9"
       sodipodi:type="arc"
       sodipodi:cx="146.1824"
       sodipodi:cy="-72.880882"
       sodipodi:rx="12.587727"
       sodipodi:ry="12.587727"
       sodipodi:start="3.1374388"
       sodipodi:end="3.1282234"
       sodipodi:open="true"
       d="m 133.59479,-72.828595 a 12.587727,12.587727 0 0 1 12.50633,-12.639751 12.587727,12.587727 0 0 1 12.66853,12.477177 12.587727,12.587727 0 0 1 -12.44796,12.697243 12.587727,12.587727 0 0 1 -12.72589,-12.418673"
       transform="scale(1,-1)" />
    <path
       style="opacity:1;fill:#e6b96e;fill-opacity:1;stroke:none;stroke-width:14.77367687;stroke-linecap:round;stroke-linejoin:round;stroke-miterlimit:4;stroke-dasharray:none;stroke-opacity:1"
       id="path4632-3"
       sodipodi:type="arc"
       sodipodi:cx="124.61155"
       sodipodi:cy="-69.770416"
       sodipodi:rx="12.587727"
       sodipodi:ry="12.587727"
       sodipodi:start="3.1374388"
       sodipodi:end="3.1282234"
       sodipodi:open="true"
       d="m 112.02393,-69.718129 a 12.587727,12.587727 0 0 1 12.50633,-12.639751 12.587727,12.587727 0 0 1 12.66853,12.477177 12.587727,12.587727 0 0 1 -12.44796,12.697243 12.587727,12.587727 0 0 1 -12.72588,-12.418673"
       transform="scale(1,-1)" />
    <path
       style="opacity:1;fill:#e6b96e;fill-opacity:1;stroke:none;stroke-width:14.77367687;stroke-linecap:round;stroke-linejoin:round;stroke-miterlimit:4;stroke-dasharray:none;stroke-opacity:1"
       id="path4632-1"
       sodipodi:type="arc"
       sodipodi:cx="105.88065"
       sodipodi:cy="-66.727463"
       sodipodi:rx="12.587727"
       sodipodi:ry="12.587727"
       sodipodi:start="3.1374388"
       sodipodi:end="3.1282234"
       sodipodi:open="true"
       d="m 93.293035,-66.675175 a 12.587727,12.587727 0 0 1 12.506335,-12.639752 12.587727,12.587727 0 0 1 12.66853,12.477178 12.587727,12.587727 0 0 1 -12.44796,12.697242 12.587727,12.587727 0 0 1 -12.725888,-12.418672"
       transform="scale(1,-1)" />
    <path
       style="opacity:1;fill:#e6b96e;fill-opacity:1;stroke:none;stroke-width:15.18726158;stroke-linecap:round;stroke-linejoin:round;stroke-miterlimit:4;stroke-dasharray:none;stroke-opacity:1"
       id="path4632"
       sodipodi:type="arc"
       sodipodi:cx="85.191589"
       sodipodi:cy="-63.319695"
       sodipodi:rx="13.302373"
       sodipodi:ry="12.587727"
       sodipodi:start="3.1374388"
       sodipodi:end="3.1282234"
       sodipodi:open="true"
       d="m 71.889331,-63.267407 a 13.302373,12.587727 0 0 1 13.216356,-12.639752 13.302373,12.587727 0 0 1 13.387765,12.477178 13.302373,12.587727 0 0 1 -13.15467,12.697242 13.302373,12.587727 0 0 1 -13.448377,-12.418672"
       transform="scale(1,-1)" />
    <path
       style="opacity:1;fill:#fdcb6e;fill-opacity:1;stroke:none;stroke-width:9.90601349;stroke-linecap:round;stroke-linejoin:round;stroke-miterlimit:4;stroke-dasharray:none;stroke-opacity:1"
       inkscape:transform-center-x="-5.3689598"
       inkscape:transform-center-y="-13.205063"
       d="M 14.202375,147.75931 71.860138,65.308843 190.41379,86.799447 Z"
       id="path4522"
       inkscape:connector-curvature="0"
       sodipodi:nodetypes="cccc" />
    <path
       style="fill:#e65a6e;fill-opacity:1;stroke:none;stroke-width:0.87365538px;stroke-linecap:butt;stroke-linejoin:miter;stroke-opacity:1"
       d="m 14.202375,147.75931 v 63.43398 l 175.833975,-47.11454 0.37744,-77.279303 z"
       id="path4550"
       inkscape:connector-curvature="0" />
    <path
       style="fill:#e6b96e;fill-opacity:1;stroke:#e6b96e;stroke-width:0.16510023;stroke-linecap:butt;stroke-linejoin:miter;stroke-miterlimit:4;stroke-dasharray:none;stroke-opacity:1"
       d="M 14.202375,147.75931 C 72.94039,127.43847 190.41379,86.799447 190.41379,86.799447 v 7.24808 L 14.167612,154.26736 Z"
       id="path4531"
       inkscape:connector-curvature="0" />
    <path
       style="fill:#e6b96e;fill-opacity:1;stroke:#e6b96e;stroke-width:0.76468366px;stroke-linecap:butt;stroke-linejoin:miter;stroke-opacity:1"
       d="m 14.23695,210.88931 c 58.600676,-15.60419 175.7994,-46.81056 175.7994,-46.81056 v 5.56574 L 14.202267,215.8868 Z"
       id="path4531-2"
       inkscape:connector-curvature="0"
       inkscape:export-filename="C:\Users\sapph\path4531-2.png"
       inkscape:export-xdpi="27.732439"
       inkscape:export-ydpi="27.732439" />
    <path
       style="fill:#e6b96e;fill-opacity:1;stroke:none;stroke-width:0.87493438px;stroke-linecap:butt;stroke-linejoin:miter;stroke-opacity:1"
       d="m 190.41379,86.802447 3.5972,-1.539298 0.21366,83.231131 -4.22815,1.13625 z"
       id="path4597"
       inkscape:connector-curvature="0"
       sodipodi:nodetypes="ccccc" />
    <path
       style="fill:#e6b96e;fill-opacity:1;stroke:none;stroke-width:0.87365538px;stroke-linecap:butt;stroke-linejoin:miter;stroke-opacity:1"
       d="m 194.01099,85.263149 -3.5972,1.536298 L 71.860138,65.308843 73.318656,63.37198 Z"
       id="path4630"
       inkscape:connector-curvature="0"
       sodipodi:nodetypes="ccccc" />
  </g>
</svg>
